<?xml version="1.0" encoding="UTF-8"?>
<svg xmlns="http://www.w3.org/2000/svg" version="1.1" viewBox="0 0 225 154">
  <defs>
    <style>
      .cls-1 {
        fill: #fff;
      }
    </style>
  </defs>
  <!-- Generator: Adobe Illustrator 28.7.0, SVG Export Plug-In . SVG Version: 1.2.0 Build 136)  -->
  <g>
    <g id="Layer_1">
      <g id="Cm4GA6.tif">
        <path class="cls-1" d="M94.9,115.5V4.9c-5.2,5.3-9.1,9.5-9,17.3.5,38.6.2,77.3.2,115.9v6h8.1c1.2-5,1.9-9.8,3.5-14.2,2.5-6.9,6.2-13.7,14.6-13.7,8.1,0,11.9,6.6,14.6,13.2,1.9,4.7,2.8,9.7,4.1,14.6h7.5v-6.3c0-28.5-.3-57,.2-85.4.1-7-3.1-10.4-8.7-13.8v77.4c-5.2-2.9-7-6.8-6.5-12.4.5-5.4.1-11,.1-16.5v-15.8h-8v36.2h-6.6v-36.2h-8c0,11.3-.3,22.3.1,33.2.2,4.9-1.2,8.3-6.3,11h0ZM80.4,144.1V20.8c-6.2,4.1-8.7,8.8-8.6,16.3.5,28.8.2,57.6.2,86.4,0,8.1-1.6,15.3-9.3,20.7h17.7ZM162.8,144.1c-7.7-5-9.6-11.9-9.6-19.4-.2-20.1-.4-40.3.1-60.4.1-6.6-3.5-9.2-8.1-12.2v92h17.7Z"/>
        <path d="M94.9,115.5c5-2.7,6.4-6.1,6.3-11-.4-10.9-.1-21.9-.1-33.2h8v36.2h6.6v-36.2h8v15.8c0,5.5.4,11-.1,16.5-.5,5.6,1.3,9.5,6.5,12.4V38.4c5.6,3.5,8.9,6.8,8.7,13.9-.5,28.5-.2,57-.2,85.4v6.3h-7.5c-1.3-4.8-2.2-9.9-4.1-14.6-2.7-6.6-6.5-13.2-14.6-13.2-8.4,0-12.1,6.8-14.6,13.7-1.6,4.4-2.3,9.2-3.5,14.2h-8.1v-6c0-38.7.3-77.3-.2-115.9,0-7.8,3.8-12,9-17.3v110.6h0Z"/>
        <path d="M80.4,144.1h-17.7c7.8-5.4,9.4-12.6,9.3-20.7,0-28.8.3-57.6-.2-86.4-.1-7.4,2.4-12.2,8.6-16.3v123.3h0Z"/>
        <path d="M162.8,144.1h-17.6V52.1c4.7,3,8.3,5.6,8.1,12.2-.5,20.1-.3,40.3-.1,60.4,0,7.5,1.9,14.4,9.6,19.4h0Z"/>
      </g>
    </g>
  </g>
</svg>